<?xml version="1.0" encoding="UTF-8"?>
<svg id="Capa_2" xmlns="http://www.w3.org/2000/svg" xmlns:xlink="http://www.w3.org/1999/xlink" version="1.1" viewBox="0 0 36.4 36.5">
  <!-- Generator: Adobe Illustrator 29.7.1, SVG Export Plug-In . SVG Version: 2.1.1 Build 8)  -->
  <defs>
    <style>
      .st0 {
        fill: url(#Degradado_sin_nombre);
      }

      .st1 {
        fill: #ededed;
      }
    </style>
    <linearGradient id="Degradado_sin_nombre" data-name="Degradado sin nombre" x1="6.7" y1="588.1" x2="14.3" y2="588.1" gradientTransform="translate(0 -562)" gradientUnits="userSpaceOnUse">
      <stop offset="0" stop-color="#ef6a1a"/>
      <stop offset=".5" stop-color="#ff000e"/>
      <stop offset="1" stop-color="#bf0055"/>
    </linearGradient>
  </defs>
  <rect width="36.5" height="36.5"/>
  <g id="Capa_1-2">
    <g>
      <path class="st1" d="M29.7,17.1c-.4-4.3-5.8-9.7-10.1-10.3-1,0-1.9,0-2.7.5l-.5.5c-.4.7-.6,1.6-.4,2.4l-6.9,7c-.2.2-.2.4,0,.6l9.8,9.8c.3,0,.4,0,.6,0l6.9-6.9h.7c2.1,0,3-1.6,2.8-3.5h0v-.2Z"/>
      <path class="st0" d="M6.7,28.2c0-1,0-1.9.4-2.8.2-.5.4-1.1.7-1.5,1.9-2.9,6.4-1.6,6.5,1.8,0,2.3-1.7,3.7-3.8,4-.5,0-.7.2-.9-.4,0-.4,0-1.1-.3-1.2-.6-.2-.7.7-.9,1.1-.2.4-.5.6-1,.7-.3,0-.6,0-.7-.3v-1.3h0Z"/>
    </g>
  </g>
</svg>