<?xml version="1.0" encoding="UTF-8"?>
<svg id="Capa_2" xmlns="http://www.w3.org/2000/svg" xmlns:xlink="http://www.w3.org/1999/xlink" version="1.1" viewBox="0 0 36.4 36.5">
  <!-- Generator: Adobe Illustrator 29.7.1, SVG Export Plug-In . SVG Version: 2.1.1 Build 8)  -->
  <defs>
    <style>
      .st0 {
        fill: url(#Degradado_sin_nombre);
      }

      .st1 {
        fill: #ededed;
      }
    </style>
    <linearGradient id="Degradado_sin_nombre" data-name="Degradado sin nombre" x1="7.7" y1="1149.3" x2="14.6" y2="1149.3" gradientTransform="translate(0 -1124)" gradientUnits="userSpaceOnUse">
      <stop offset="0" stop-color="#ef6a1a"/>
      <stop offset=".5" stop-color="#ff000e"/>
      <stop offset="1" stop-color="#bf0055"/>
    </linearGradient>
  </defs>
  <rect width="36.5" height="36.5" rx="18.2" ry="18.2"/>
  <g id="Capa_1-2">
    <g>
      <path class="st1" d="M28.5,17.1c-.4-3.9-5.3-8.8-9.2-9.3-.9,0-1.7,0-2.4.5l-.5.5c-.4.6-.5,1.5-.4,2.2l-6.3,6.3c-.2.2-.2.4,0,.5l8.9,8.9h.5l6.3-6.3h.6c1.9,0,2.7-1.5,2.5-3.2h0v-.2h-.2Z"/>
      <path class="st0" d="M7.7,27.2c0-.9,0-1.7.4-2.5.2-.5.4-1,.6-1.4,1.7-2.6,5.8-1.5,5.9,1.6,0,2.1-1.5,3.4-3.4,3.6-.5,0-.6.2-.8-.4,0-.4,0-1-.3-1.1-.5-.2-.6.6-.8,1s-.5.5-.9.6c-.3,0-.5,0-.6-.3v-1.2h0Z"/>
    </g>
  </g>
</svg>