<?xml version="1.0" encoding="UTF-8"?>
<svg id="Capa_2" xmlns="http://www.w3.org/2000/svg" xmlns:xlink="http://www.w3.org/1999/xlink" version="1.1" viewBox="0 0 128 128">
  <!-- Generator: Adobe Illustrator 29.7.1, SVG Export Plug-In . SVG Version: 2.1.1 Build 8)  -->
  <defs>
    <style>
      .st0 {
        fill: url(#Degradado_sin_nombre);
      }

      .st1 {
        fill: url(#Degradado_sin_nombre1);
      }
    </style>
    <linearGradient id="Degradado_sin_nombre" data-name="Degradado sin nombre" x1="14" y1="57.8" x2="126" y2="57.8" gradientUnits="userSpaceOnUse">
      <stop offset="0" stop-color="#ff7800"/>
      <stop offset="1" stop-color="#ff0352"/>
    </linearGradient>
    <linearGradient id="Degradado_sin_nombre1" data-name="Degradado sin nombre" x1="2" y1="-445" x2="42.9" y2="-445" gradientTransform="translate(0 -339.2) scale(1 -1)" xlink:href="#Degradado_sin_nombre"/>
  </defs>
  <g id="Capa_1-2">
    <g>
      <path class="st0" d="M125.9,57.3c-2.3-23.2-31.4-52.2-54.3-55.3-5.1-.7-9.9,0-14.3,2.7l-2.7,2.7c-2.4,3.9-3.1,8.5-2.6,13L14.8,57.8c-1,1.1-.9,2-.6,3.4l52.2,52.2c1.2.6,2.3.5,3.4-.3l37.1-37.1c.4-.2,3.2,0,4,0,10.9-.4,16-8.7,15-18.8h0Z"/>
      <path class="st1" d="M2,117.3c0-5,.6-10,2-14.9.8-2.9,2-5.7,3.7-8.3,10.3-15.4,34.4-8.8,35.2,9.6.6,12.4-9.4,19.7-20.5,21.7-3.1.6-3.8.7-4.7-2.6-.5-1.8,0-5.8-1.5-6.3-3.3-1.1-3.7,3.6-5,5.7-1.1,1.9-3.1,3.2-5.2,3.6-1.6.4-3.4.7-4-1.2v-7.4h0Z"/>
    </g>
  </g>
</svg>