<?xml version="1.0" encoding="UTF-8"?>
<svg id="Capa_2" xmlns="http://www.w3.org/2000/svg" version="1.1" viewBox="0 0 128 128">
  <!-- Generator: Adobe Illustrator 29.7.1, SVG Export Plug-In . SVG Version: 2.1.1 Build 8)  -->
  <defs>
    <style>
      .st0 {
        fill: #FFA726;
      }

      .st1 {
        fill: #ededed;
      }
    </style>
  </defs>
  <path class="st0"
    d="M2.8,116.7c0-4.8.5-9.6,1.9-14.1,1.4-4.5,1.9-5.4,3.5-7.9,9.8-14.7,32.8-8.3,33.6,9.1.5,11.8-8.9,18.8-19.6,20.7-3,.5-3.6.7-4.5-2.5-.5-1.7,0-5.5-1.4-6-3.1-1-3.6,3.5-4.7,5.5-1.1,1.8-2.9,3-4.9,3.5-1.5.4-3.2.6-3.8-1.2v-7.1h0Z" />
  <path class="st1"
    d="M119.7,48.2c7.3,7.3,7.3,19.2,0,26.6-3,3-7,4.9-11.3,5.4h-.8l-27.7,27.8c-5.3,5.3-13.7,5.5-19.3.6l-.6-.6-39.8-39.8c-5.5-5.5-5.5-14.4,0-19.9l27.7-27.7v-.8c.7-6.1,4.3-11.5,9.7-14.4l.9-.5c6.8-3.3,15-2.2,20.8,3.1l40.1,40.1.3.3v-.2Z" />
</svg>